<svg height="496pt" viewBox="0 0 496 496" width="496pt" xmlns="http://www.w3.org/2000/svg"><g fill="#3ebd93"><path d="m352 174.777344v-61.546875l-29.535156-4.925781c-2.160156-6.921876-4.921875-13.617188-8.273438-20l17.410156-24.359376-43.53125-43.53125-24.359374 17.410157c-6.382813-3.351563-13.078126-6.121094-20-8.273438l-4.933594-29.550781h-61.546875l-4.925781 29.535156c-6.921876 2.160156-13.617188 4.921875-20 8.273438l-24.359376-17.410156-43.53125 43.53125 17.410157 24.359374c-3.351563 6.382813-6.121094 13.078126-8.273438 20l-29.550781 4.933594v61.546875l29.535156 4.925781c2.160156 6.921876 4.921875 13.617188 8.273438 20l-17.410156 24.359376 43.53125 43.53125 24.359374-17.410157c6.382813 3.351563 13.078126 6.121094 20 8.273438l4.933594 29.550781h61.546875l4.925781-29.535156c6.921876-2.160156 13.617188-4.921875 20-8.273438l24.359376 17.410156 43.53125-43.53125-17.410157-24.359374c3.351563-6.382813 6.121094-13.078126 8.273438-20zm-144 49.222656c-44.183594 0-80-35.816406-80-80s35.816406-80 80-80 80 35.816406 80 80-35.816406 80-80 80zm0 0"/><path d="m80 480h-48v-216h48zm0 0"/><path d="m144 480h-48v-160h48zm0 0"/><path d="m208 480h-48v-120h48zm0 0"/><path d="m272 480h-48v-80h48zm0 0"/><path d="m336 480h-48v-40h48zm0 0"/></g><path d="m200 24h16v16h-16zm0 0"/><path d="m117.496094 64.804688 11.3125-11.3125 11.3125 11.3125-11.3125 11.3125zm0 0"/><path d="m88 136h16v16h-16zm0 0"/><path d="m117.496094 223.195312 11.3125-11.3125 11.3125 11.3125-11.3125 11.3125zm0 0"/><path d="m200 248h16v16h-16zm0 0"/><path d="m275.882812 223.195312 11.316407-11.3125 11.3125 11.3125-11.3125 11.3125zm0 0"/><path d="m312 136h16v16h-16zm0 0"/><path d="m275.886719 64.804688 11.3125-11.3125 11.3125 11.3125-11.3125 11.3125zm0 0"/><path d="m208 232c48.519531 0 88-39.480469 88-88s-39.480469-88-88-88-88 39.480469-88 88 39.480469 88 88 88zm0-160c39.695312 0 72 32.296875 72 72s-32.304688 72-72 72-72-32.296875-72-72 32.304688-72 72-72zm0 0"/><path d="m208 200c11.664062 0 22.878906-3.59375 32.425781-10.390625l-9.28125-13.035156c-6.824219 4.859375-14.824219 7.425781-23.144531 7.425781-22.054688 0-40-17.945312-40-40 0-8.320312 2.566406-16.320312 7.425781-23.144531l-13.035156-9.28125c-6.796875 9.554687-10.390625 20.761719-10.390625 32.425781 0 30.871094 25.121094 56 56 56zm0 0"/><path d="m208 104c22.054688 0 40 17.945312 40 40 0 8.320312-2.566406 16.320312-7.425781 23.144531l13.035156 9.28125c6.796875-9.554687 10.390625-20.761719 10.390625-32.425781 0-30.871094-25.121094-56-56-56-11.664062 0-22.878906 3.59375-32.425781 10.390625l9.28125 13.035156c6.824219-4.859375 14.824219-7.425781 23.144531-7.425781zm0 0"/><path d="m496 203.3125v-53.976562l-28-37.335938h-20v48h-32v-48h-20l-28 37.335938v53.976562l24 24v153.375l-24 24v53.976562l28 37.335938h20v-48h32v48h20l28-37.335938v-53.976562l-24-24v-153.375zm-16 208v42.023438l-16 21.328124v-42.664062h-64v42.664062l-16-21.328124v-42.023438l24-24v-166.625l-24-24v-42.023438l16-21.328124v42.664062h64v-42.664062l16 21.328124v42.023438l-24 24v166.625zm0 0"/><path d="m424 224h16v16h-16zm0 0"/><path d="m424 256h16v96h-16zm0 0"/><path d="m424 368h16v16h-16zm0 0"/><path d="m16 216h-16v280h352v-16h-336zm0 0"/><path d="m13.65625 61.65625 18.34375-18.34375 18.34375 18.34375 11.3125-11.3125-18.34375-18.34375 18.34375-18.34375-11.3125-11.3125-18.34375 18.34375-18.34375-18.34375-11.3125 11.3125 18.34375 18.34375-18.34375 18.34375zm0 0"/><path d="m293.65625 290.34375-11.3125 11.3125 18.34375 18.34375-18.34375 18.34375 11.3125 11.3125 18.34375-18.34375 18.34375 18.34375 11.3125-11.3125-18.34375-18.34375 18.34375-18.34375-11.3125-11.3125-18.34375 18.34375zm0 0"/><path d="m445.65625 61.65625 18.34375-18.34375 18.34375 18.34375 11.3125-11.3125-18.34375-18.34375 18.34375-18.34375-11.3125-11.3125-18.34375 18.34375-18.34375-18.34375-11.3125 11.3125 18.34375 18.34375-18.34375 18.34375zm0 0"/></svg>