<svg id="Layer_5" enable-background="new 0 0 64 64" height="512" viewBox="0 0 64 64" width="512" xmlns="http://www.w3.org/2000/svg"><g><g><g><path d="m14 62c-2.206 0-4-1.794-4-4s1.794-4 4-4 4 1.794 4 4-1.794 4-4 4z" fill="#3ebd93"/></g></g><g><g><path d="m26 62c-2.206 0-4-1.794-4-4s1.794-4 4-4 4 1.794 4 4-1.794 4-4 4z" fill="#3ebd93"/></g></g><g><g><path d="m38 62c-2.206 0-4-1.794-4-4s1.794-4 4-4 4 1.794 4 4-1.794 4-4 4z" fill="#3ebd93"/></g></g><g><g><path d="m50 62c-2.206 0-4-1.794-4-4s1.794-4 4-4 4 1.794 4 4-1.794 4-4 4z" fill="#3ebd93"/></g></g><g><g><path d="m55 47h-6v-5h6z" fill="#3ebd93"/></g></g><g><g><path d="m35 47h-6v-5h6z" fill="#3ebd93"/></g></g><g><g><path d="m15 47h-6v-5h6z" fill="#3ebd93"/></g></g><g><path d="m59 53.101v-12.101h-14v12h-6v-12h-11v-2h3c2.757 0 5-2.243 5-5 0-5.801-4.513-10.567-10.212-10.972l-.194-.775c1.164-.713 2.024-1.874 2.305-3.253h.101c2.206 0 4-1.794 4-4 0-.732-.212-1.409-.556-2h.556c1.654 0 3-1.346 3-3s-1.346-3-3-3v-1c0-2.757-2.243-5-5-5h-10c-2.757 0-5 2.243-5 5v7h.556c-.344.591-.556 1.268-.556 2 0 2.206 1.794 4 4 4h.101c.281 1.38 1.141 2.541 2.305 3.253l-.194.775c-2.366.168-4.521 1.096-6.241 2.529l-.265-.265c-.391-.391-1.023-.391-1.414 0s-.391 1.023 0 1.414l.265.265c-1.59 1.909-2.557 4.356-2.557 7.029 0 2.757 2.243 5 5 5h3v2h-11v12.101c-2.279.465-4 2.485-4 4.899 0 2.757 2.243 5 5 5h52c2.757 0 5-2.243 5-5 0-2.414-1.721-4.434-4-4.899zm-12-10.101h10v10h-10zm-10 0v10h-10v-10h1zm-18 10v-10h6v10zm11-38c0 1.103-.897 2-2 2v-4c1.103 0 2 .897 2 2zm2-6c.551 0 1 .448 1 1s-.449 1-1 1h-4-1-2l1.199-1.6c.189-.251.488-.4.801-.4zm-18-3c0-1.654 1.346-3 3-3h10c1.654 0 3 1.346 3 3v1h-3c-.938 0-1.835.448-2.4 1.2l-2.1 2.8h-5.5-1-2zm0 9c0-1.103.897-2 2-2v4c-1.103 0-2-.897-2-2zm4-2h8v5c0 1.654-1.346 3-3 3h-2c-1.654 0-3-1.346-3-3zm1 12h.781l.518-2.071c.231.033.461.071.701.071h2c.24 0 .47-.038.701-.071l.518 2.071h.781c4.962 0 9 4.037 9 9 0 1.654-1.346 3-3 3h-8c-1.103 0-2-.897-2-2s.897-2 2-2h.146c.762 0 1.448.424 1.789 1.105l.618 1.236 4.447-2.223 1.553.776.895-1.789-2.448-1.223-2 1v-4.882h-12v2.586l-2.611-2.611c1.54-1.233 3.489-1.975 5.611-1.975zm-6 12c-1.654 0-3-1.346-3-3 0-2.122.742-4.071 1.975-5.611l2.961 2.961-.936-.468-2.447 1.224.895 1.789 1.552-.777 2 1v2.882zm5-8h8v3.203c-.739-.758-1.755-1.203-2.854-1.203h-.146c-2.206 0-4 1.794-4 4s1.794 4 4 4h3v2h-1-6-1zm-2 14h1v10h-10v-10zm42 18h-52c-1.654 0-3-1.346-3-3s1.346-3 3-3h52c1.654 0 3 1.346 3 3s-1.346 3-3 3z"/><path d="m38.596 26.825c.297 2.38 2.33 4.175 4.729 4.175h1.675v1.586c0 1.331 1.083 2.414 2.414 2.414.635 0 1.257-.258 1.707-.707l3.293-3.293h4.262c2.398 0 4.432-1.795 4.729-4.175l1.559-12.467c.024-.196.036-.394.036-.592 0-2.628-2.138-4.766-4.766-4.766h-16.468c-2.628 0-4.766 2.138-4.766 4.766 0 .198.012.396.037.591zm3.17-15.825h16.469c1.524 0 2.765 1.24 2.765 2.766 0 .114-.007.229-.021.343l-1.559 12.468c-.172 1.381-1.352 2.423-2.744 2.423h-5.09l-3.878 3.878c-.241.242-.708.045-.708-.292v-3.586h-3.676c-1.392 0-2.572-1.042-2.744-2.423l-1.559-12.471c-.014-.112-.021-.226-.021-.34 0-1.526 1.241-2.766 2.766-2.766z"/><path d="m56 19.414 1.614 1.614 1.661-8.303-8.303 1.66 2.614 2.615-2.68 2.68-4-3-4.906 4.906v5.414h14zm.725-4.14-.339 1.697-1.357-1.357zm-8.725 4.726 2 1.5v3.5h-2zm-4 2.414 2-2v4.586h-2zm10 2.586h-2v-3.586l2-2z"/></g></g></svg>