<svg height="496pt" viewBox="0 0 496 496" width="496pt" xmlns="http://www.w3.org/2000/svg"><path d="m380.425781 226.734375 55.160157-27.574219-7.160157-14.3125-40.839843 20.425782-48.84375-97.6875 40.84375-20.425782-7.160157-14.3125-45.160156 22.585938-70.953125-21.28125c-5.351562-1.601563-10.855469-2.160156-16.3125-1.960938v-.191406h-86.496094l-38.601562-15.007812-5.796875 14.902343 32.46875 12.632813-42.03125 105.074218-24.574219-9.832031-5.9375 14.855469 39.425781 15.765625 9.894531-24.734375 14.335938 14.34375-13.375 13.375c-4.648438 4.648438-7.3125 11.082031-7.3125 17.65625 0 13.464844 10.734375 24.410156 24.089844 24.878906.460937 13.050782 10.949218 23.539063 24 24 .460937 13.050782 10.949218 23.539063 24 24 .476562 13.355469 11.414062 24.089844 24.878906 24.089844 6.574219 0 13.007812-2.664062 17.65625-7.3125l13.375-13.375 5.375 5.375c4.648438 4.648438 11.082031 7.3125 17.65625 7.3125 13.464844 0 24.410156-10.734375 24.878906-24.089844 13.050782-.460937 23.539063-10.949218 24-24 13.050782-.460937 23.539063-10.949218 24-24 13.355469-.476562 24.089844-11.414062 24.089844-24.878906 0-1.136719-.183594-2.253906-.335938-3.382812l11.480469-11.480469zm-237.113281 10.640625c-1.671875 1.671875-3.984375 2.625-6.34375 2.625-4.945312 0-8.96875-4.023438-8.96875-8.96875 0-2.359375.953125-4.671875 2.625-6.34375l14.0625-14.0625c1.671875-1.671875 3.984375-2.625 6.34375-2.625 4.945312 0 8.96875 4.023438 8.96875 8.96875 0 2.359375-.953125 4.671875-2.625 6.34375zm24 24c-1.671875 1.671875-3.984375 2.625-6.34375 2.625-4.945312 0-8.96875-4.023438-8.96875-8.96875 0-2.359375.953125-4.671875 2.625-6.34375l14.0625-14.0625c1.671875-1.671875 3.984375-2.625 6.34375-2.625 4.945312 0 8.96875 4.023438 8.96875 8.96875 0 2.359375-.953125 4.671875-2.625 6.34375zm24 24c-1.671875 1.671875-3.984375 2.625-6.34375 2.625-4.945312 0-8.96875-4.023438-8.96875-8.96875 0-2.359375.953125-4.671875 2.625-6.34375l14.0625-14.0625c1.671875-1.671875 3.984375-2.625 6.34375-2.625 4.945312 0 8.96875 4.023438 8.96875 8.96875 0 2.359375-.953125 4.671875-2.625 6.34375zm38.0625 9.9375-14.0625 14.0625c-1.671875 1.671875-3.984375 2.625-6.34375 2.625-4.945312 0-8.96875-4.023438-8.96875-8.96875 0-2.359375.953125-4.671875 2.625-6.34375l14.0625-14.0625c1.671875-1.671875 3.984375-2.625 6.34375-2.625 4.945312 0 8.96875 4.023438 8.96875 8.96875 0 2.359375-.953125 4.671875-2.625 6.34375zm105.65625-63.3125c-2.359375 0-4.671875-.960938-6.34375-2.625l-67.03125-67.03125-11.3125 11.3125 67.03125 67.03125c1.671875 1.671875 2.625 3.984375 2.625 6.34375 0 4.945312-4.023438 8.96875-8.96875 8.96875-2.359375 0-4.671875-.953125-6.34375-2.625l-67.03125-67.03125-11.3125 11.3125 67.03125 67.03125c1.671875 1.671875 2.625 3.984375 2.625 6.34375 0 4.945312-4.023438 8.96875-8.96875 8.96875-2.359375 0-4.671875-.953125-6.34375-2.625l-67.03125-67.03125-11.3125 11.3125 67.03125 67.03125c1.671875 1.671875 2.625 3.984375 2.625 6.34375 0 4.945312-4.023438 8.96875-8.96875 8.96875-2.359375 0-4.671875-.953125-6.34375-2.625l-9.023438-9.023438c.160157-1.121093.335938-2.238281.335938-3.382812 0-13.464844-10.734375-24.410156-24.089844-24.878906-.460937-13.050782-10.949218-23.539063-24-24-.460937-13.050782-10.949218-23.539063-24-24-.476562-13.355469-11.414062-24.089844-24.878906-24.089844-1.136719 0-2.253906.183594-3.382812.335938l-22.839844-22.839844 32.605468-81.496094h47.273438l-29.375 29.375c-4.648438 4.648438-7.3125 11.082031-7.3125 17.65625 0 13.769531 11.199219 24.96875 24.96875 24.96875 6.574219 0 13.007812-2.664062 17.65625-7.3125l21.191406-21.191406c4.335938-4.328125 11.96875-4.496094 16.488282-.359375l18.703124 17.144531c5.945313 5.445312 12.542969 9.984375 19.566407 13.613281l54.800781 54.800781c1.671875 1.664063 2.625 3.976563 2.625 6.335938 0 4.945312-4.023438 8.96875-8.96875 8.96875zm16.96875-27.3125-33.183594-33.183594c3.039063.3125 6.09375.496094 9.183594.496094v-16c-18.625 0-36.449219-6.929688-50.175781-19.519531l-18.703125-17.144531c-10.5625-9.6875-28.464844-9.296876-38.609375.839843l-21.191407 21.191407c-1.679687 1.679687-3.992187 2.632812-6.351562 2.632812-4.945312 0-8.96875-4.023438-8.96875-8.96875 0-2.359375.953125-4.671875 2.625-6.34375l30.496094-30.496094c8.957031-8.96875 22.414062-12.367187 34.589844-8.71875l70.671874 21.199219 41.210938 82.417969zm0 0"/><g fill="#f0bc5e"><path d="m488 144.566406c0-42.175781-19.144531-79.871094-49.191406-104.917968l-73.679688 36.839843 87.503906 167.046875 1.710938 2.777344c21.472656-24.640625 33.65625-56.410156 33.65625-89.695312zm0 0"/><path d="m124.769531 60.824219-63.167969-24.558594c-32.539062 24.964844-53.601562 64.125-53.601562 108.300781v12.050782c0 35.871093 14.144531 69.984374 38.832031 95.304687l.574219-.890625 72.082031-176.207031zm0 0"/><path d="m272 488h-48v-72h48zm0 0"/><path d="m336 488h-48v-104h48zm0 0"/><path d="m208 488h-48v-48h48zm0 0"/></g><path d="m351.433594 0h-6.859375c-36.015625 0-70.015625 13.070312-96.574219 36.976562-26.558594-23.90625-60.558594-36.976562-96.566406-36.976562h-6.859375c-79.726563 0-144.574219 64.847656-144.574219 144.566406v12.050782c0 44.664062 21.167969 87.550781 56.609375 114.734374l151.398437 116.0625c-20.230468 5.578126-41.871093 10-64.917968 12.640626l1.832031 15.890624c128.832031-14.753906 215.039063-80.601562 247.078125-109.234374v21.289062h16v-48h-48v16h19.777344c-23.882813 20.832031-76.792969 61.039062-152.847656 85.753906l-160.585938-123.105468c-31.519531-24.160157-50.34375-62.304688-50.34375-102.03125v-12.050782c0-70.886718 57.679688-128.566406 128.566406-128.566406h6.859375c34.34375 0 66.628907 13.375 90.910157 37.65625l5.664062 5.65625 5.65625-5.65625c24.28125-24.28125 56.566406-37.65625 90.910156-37.65625h6.859375c70.894531 0 128.574219 57.679688 128.574219 128.566406v12.050782c0 39.726562-18.824219 77.863281-50.34375 102.03125l-9.136719 7 9.738281 12.703124 9.132813-7c35.441406-27.183593 56.609375-70.070312 56.609375-114.734374v-12.050782c0-79.71875-64.847656-144.566406-144.566406-144.566406zm0 0"/><path d="m144 480h208v16h-208zm0 0"/><path d="m112 400h16v16h-16zm0 0"/><path d="m496 328h-16v-16h-16v16h-16v16h16v16h16v-16h16zm0 0"/><path d="m424 440h-16v-16h-16v16h-16v16h16v16h16v-16h16zm0 0"/><path d="m32 336v-16h16v-16h-16v-16h-16v16h-16v16h16v16zm0 0"/><path d="m72 464h-16v-16h-16v16h-16v16h16v16h16v-16h16zm0 0"/></svg>