<svg height="496pt" viewBox="-1 0 495 496" width="496pt" xmlns="http://www.w3.org/2000/svg"><path d="m304.5 245.769531v-59.53125l-30.441406-10.148437c-2.023438-6.203125-4.496094-12.1875-7.351563-17.875l14.320313-28.640625-42.101563-42.101563-28.640625 14.320313c-5.6875-2.855469-11.671875-5.328125-17.875-7.351563l-10.140625-30.441406h-59.53125l-10.148437 30.441406c-6.203125 2.023438-12.1875 4.496094-17.875 7.351563l-28.640625-14.320313-42.101563 42.101563 14.320313 28.640625c-2.855469 5.6875-5.328125 11.671875-7.351563 17.875l-30.441406 10.140625v59.53125l30.441406 10.148437c2.023438 6.203125 4.496094 12.1875 7.351563 17.875l-14.320313 28.640625 42.101563 42.101563 28.640625-14.320313c6.914062 3.488281 14.273437 6.367188 21.921875 8.601563h3.863281v-12.984375c0-15.152344-7.023438-29.59375-19.320312-38.433594-25.238282-18.132813-40.496094-49.269531-35.847657-83.65625 5.304688-39.238281 37.488281-70.671875 76.832031-75.148437 53.222657-6.066407 98.335938 35.40625 98.335938 87.414062 0 29.28125-14.328125 55.175781-36.335938 71.152344-12.375 8.984375-19.664062 23.375-19.664062 38.671875v12.992187h3.863281c7.648438-2.230468 15.007813-5.121094 21.921875-8.601562l28.640625 14.320312 42.101563-42.101562-14.320313-28.640625c2.855469-5.6875 5.328125-11.671875 7.351563-17.871094zm0 0" fill="#3ebd93"/><path d="m144.5 96h16v16h-16zm0 0"/><path d="m61.992188 136.804688 11.316406-11.3125 11.3125 11.3125-11.3125 11.3125zm0 0"/><path d="m32.5 208h16v16h-16zm0 0"/><path d="m61.996094 295.195312 11.3125-11.3125 11.3125 11.3125-11.3125 11.3125zm0 0"/><path d="m220.382812 295.195312 11.316407-11.3125 11.3125 11.3125-11.3125 11.3125zm0 0"/><path d="m256.5 208h16v16h-16zm0 0"/><path d="m220.386719 136.804688 11.3125-11.3125 11.3125 11.3125-11.3125 11.3125zm0 0"/><path d="m298.84375 106.34375 11.3125 11.3125 26.34375-26.34375v300.6875c0 48.519531-39.480469 88-88 88s-88-39.480469-88-88v-.808594c18.230469-3.71875 32-19.871094 32-39.191406v-26.175781c0-12.71875 6.121094-24.761719 16.359375-32.199219 24.824219-18.007812 39.640625-47.03125 39.640625-77.625 0-27.328125-11.695312-53.441406-32.097656-71.648438-20.382813-18.191406-47.804688-26.839843-75.148438-23.710937-42.824218 4.878906-78.089844 39.382813-83.851562 82.03125-4.789063 35.488281 10.195312 70.441406 39.113281 91.222656 10.007813 7.203125 15.984375 19.136719 15.984375 31.9375v26.167969c0 19.3125 13.769531 35.472656 32 39.191406v.808594c0 57.34375 46.65625 104 104 104s104-46.65625 104-104v-300.6875l26.34375 26.34375 11.3125-11.3125-45.65625-45.65625zm-170.6875 213.65625h48.6875c-.199219 1.929688-.34375 3.863281-.34375 5.824219v10.175781h-48v-10.167969c0-1.960937-.144531-3.902343-.34375-5.832031zm16.34375-88c0-4.40625 3.59375-8 8-8s8 3.59375 8 8-3.59375 8-8 8-8-3.59375-8-8zm-38.65625 48.902344c-24.105469-17.328125-36.589844-46.476563-32.589844-76.085938 4.789063-35.503906 34.148438-64.214844 69.804688-68.28125 3.203125-.367187 6.386718-.542968 9.546875-.542968 19.695312 0 38.285156 7.039062 53.140625 20.304687 17 15.175781 26.753906 36.933594 26.753906 59.703125 0 25.488281-12.351562 49.664062-33.03125 64.679688-8.25 5.984374-14.503906 14.128906-18.417969 23.320312h-20.550781v-49.472656c9.289062-3.3125 16-12.113282 16-22.527344 0-13.230469-10.769531-24-24-24s-24 10.769531-24 24c0 10.414062 6.710938 19.214844 16 22.527344v49.472656h-20.480469c-3.847656-9.175781-10.03125-17.238281-18.175781-23.097656zm22.65625 71.097656h48c0 13.230469-10.769531 24-24 24s-24-10.769531-24-24zm0 0"/><path d="m344.5 48c13.230469 0 24-10.769531 24-24s-10.769531-24-24-24-24 10.769531-24 24 10.769531 24 24 24zm0-32c4.40625 0 8 3.59375 8 8s-3.59375 8-8 8-8-3.59375-8-8 3.59375-8 8-8zm0 0"/><path d="m14.15625 61.65625 18.34375-18.34375 18.34375 18.34375 11.3125-11.3125-18.34375-18.34375 18.34375-18.34375-11.3125-11.3125-18.34375 18.34375-18.34375-18.34375-11.3125 11.3125 18.34375 18.34375-18.34375 18.34375zm0 0"/><path d="m494.15625 221.65625-11.3125-11.3125-18.34375 18.34375-18.34375-18.34375-11.3125 11.3125 18.34375 18.34375-18.34375 18.34375 11.3125 11.3125 18.34375-18.34375 18.34375 18.34375 11.3125-11.3125-18.34375-18.34375zm0 0"/><path d="m50.84375 434.34375-18.34375 18.34375-18.34375-18.34375-11.3125 11.3125 18.34375 18.34375-18.34375 18.34375 11.3125 11.3125 18.34375-18.34375 18.34375 18.34375 11.3125-11.3125-18.34375-18.34375 18.34375-18.34375zm0 0"/><path d="m432.5 392c-13.230469 0-24 10.769531-24 24s10.769531 24 24 24 24-10.769531 24-24-10.769531-24-24-24zm0 32c-4.40625 0-8-3.59375-8-8s3.59375-8 8-8 8 3.59375 8 8-3.59375 8-8 8zm0 0"/></svg>